<svg xmlns="http://www.w3.org/2000/svg" viewBox="0 0 35.3 58.93"><defs><style>.cls-1{font-size:12px;font-family:BerlinSansFB-Reg, Berlin Sans FB;}.cls-1,.cls-2{fill:#6c6d21;}.cls-3{fill:none;stroke:#6c6d21;stroke-miterlimit:10;}</style></defs><g id="Layer_2" data-name="Layer 2"><g id="Layer_1-2" data-name="Layer 1"><text class="cls-1" transform="translate(0.95 56.49)">Sidang</text><path class="cls-2" d="M34.36,12A17.65,17.65,0,1,0,2.22,26.22l9.22,9.22A10.21,10.21,0,0,1,13,31.68l-1.3-1.3a1,1,0,0,1-.3-.72V22.5l-.28-.29L7.43,18.55l-.61-.61a1,1,0,0,1-.28-.85L8,8.81A1.4,1.4,0,0,1,9.33,7.63h2.34a1,1,0,0,1,.72.29L14,9.42a1.29,1.29,0,0,0,.87.34h5.2a1.32,1.32,0,0,0,.83-.3l1.67-1.39a1.89,1.89,0,0,1,1.2-.44h2.62a.91.91,0,0,1,.89.75l1.55,9.2-1,1-3.65,3.66-.29.29v7.16a1,1,0,0,1-.3.72l-1.13,1.13a9,9,0,0,1,1.4,3.89l9.19-9.18A17.67,17.67,0,0,0,34.36,12Z"/><path class="cls-2" d="M17.65,41.59l5-5h-10Z"/><path class="cls-3" d="M23.92,29.66V22.5l.29-.29,3.65-3.66,1-1-1.55-9.2a.91.91,0,0,0-.89-.75H23.77a1.89,1.89,0,0,0-1.2.44L20.9,9.46a1.32,1.32,0,0,1-.83.3h-5.2A1.29,1.29,0,0,1,14,9.42l-1.61-1.5a1,1,0,0,0-.72-.29H9.33A1.4,1.4,0,0,0,8,8.81L6.54,17.09a1,1,0,0,0,.28.85l.61.61,3.66,3.66.28.29v7.16a1,1,0,0,0,.3.72l1.3,1.3L15,33.74l.15.15h4.94l.14-.15,2.23-2.23-.16-.26.16.26,1.13-1.13A1,1,0,0,0,23.92,29.66ZM13.71,17.13l-3-1.25.81-1.4,2.6.92,1.77,4.68Zm5.17,8.43-1.51,1.51s-.68-.69-1.51-1.51ZM17.54,27.2l-.17-.13-.16.13-1.9,1.47,1.9-1.47.16-.13.17.13,1.89,1.47Zm4-10.07-2.15,2.95,1.78-4.68,2.6-.92.8,1.4Z"/><path class="cls-2" d="M17.37,27.07l1.51-1.51h-3C16.69,26.38,17.37,27.07,17.37,27.07Z"/><polygon class="cls-2" points="14.09 15.4 11.49 14.48 10.68 15.88 13.71 17.13 15.86 20.08 14.09 15.4"/><polygon class="cls-2" points="23.81 14.48 21.21 15.4 19.43 20.08 21.58 17.13 24.61 15.88 23.81 14.48"/></g></g></svg>