<svg xmlns="http://www.w3.org/2000/svg" viewBox="0 0 50.74 59.79"><defs><style>.cls-1{fill:#6c6d21;}.cls-2{fill:none;stroke:#6c6d21;stroke-miterlimit:10;}</style></defs><g id="Layer_2" data-name="Layer 2"><g id="Layer_1-2" data-name="Layer 1"><path class="cls-1" d="M49.4,17.2A25.38,25.38,0,1,0,3.19,37.69L16.45,51a14.6,14.6,0,0,1,2.2-5.41l-1.87-1.87a1.44,1.44,0,0,1-.43-1V32.34l-.41-.41-5.26-5.26-.88-.88a1.4,1.4,0,0,1-.39-1.23l2-11.9a2,2,0,0,1,2-1.69h3.35a1.53,1.53,0,0,1,1,.41l2.32,2.16a1.87,1.87,0,0,0,1.25.49h7.47A1.85,1.85,0,0,0,30,13.6l2.4-2A2.69,2.69,0,0,1,34.17,11h3.77a1.29,1.29,0,0,1,1.27,1.08l2.24,13.22c-.78.79-1.4,1.4-1.4,1.4L34.8,31.93l-.41.41V42.63a1.48,1.48,0,0,1-.43,1L32.33,45.3a13.07,13.07,0,0,1,2,5.59l13.21-13.2A25.5,25.5,0,0,0,49.4,17.2Z"/><path class="cls-1" d="M25.37,59.79l7.18-7.18H18.19Z"/><path class="cls-2" d="M34.39,42.63V32.34l.41-.41,5.25-5.26s.62-.61,1.4-1.4L39.21,12.05A1.29,1.29,0,0,0,37.94,11H34.17a2.69,2.69,0,0,0-1.73.63l-2.4,2a1.85,1.85,0,0,1-1.19.43H21.38a1.87,1.87,0,0,1-1.25-.49l-2.32-2.16a1.53,1.53,0,0,0-1-.41H13.42a2,2,0,0,0-2,1.69l-2,11.9a1.4,1.4,0,0,0,.39,1.23l.88.88,5.26,5.26.41.41V42.63a1.44,1.44,0,0,0,.43,1l1.87,1.87,3,3,.21.21h7.1l.21-.21,3.2-3.2c-.14-.24-.24-.38-.24-.38s.1.14.24.38L34,43.67A1.48,1.48,0,0,0,34.39,42.63Zm-14.67-18-4.36-1.8,1.15-2,3.74,1.33,2.55,6.72Zm7.42,12.11L25,38.91,22.8,36.74Zm-1.93,2.35L25,38.91l-.23.18L22,41.22l2.73-2.13.23-.18.24.18,2.72,2.13ZM31,24.63l-3.09,4.23,2.55-6.72,3.74-1.33,1.16,2Z"/><path class="cls-1" d="M25,38.91l2.17-2.17H22.8Z"/><polygon class="cls-1" points="20.25 22.14 16.51 20.81 15.36 22.83 19.71 24.63 22.8 28.86 20.25 22.14"/><polygon class="cls-1" points="34.23 20.81 30.48 22.14 27.93 28.86 31.02 24.63 35.38 22.83 34.23 20.81"/></g></g></svg>